# xmcd
#
# Track frame offsets:
#	182
#	20520
#	51392
#	65705
#
# Disc length: 1107 seconds
#
# Revision: 1
# Processed by: cddbd v1.5.1PL2 Copyright (c) Steve Scherf et al.
# Submitted via: EasyCDDAExtractor 7.1.1.1
#
DISCID=36045104
DTITLE=Marc Almond and P.J. Proby - Yesterday Has Gone
DYEAR=1996
DGENRE=Garfield
TTITLE0=Yesterday Has Gone
TTITLE1=Yesterday Has Gone (balearico mix)
TTITLE2=Devil In Red Velvet
TTITLE3=Pain In Your Heart
EXTD=
EXTT0=
EXTT1=
EXTT2=
EXTT3=
PLAYORDER=
